<?xml version="1.0" encoding="UTF-8" standalone="no"?>
<svg xmlns:inkscape="http://www.inkscape.org/namespaces/inkscape" xmlns:sodipodi="http://sodipodi.sourceforge.net/DTD/sodipodi-0.dtd"
    data-name="Rectangle 2 copy 14 Obraz" id="Rectangle_2_copy_14_Obraz" version="1.1"
    viewBox="0 0 490.08 490.08" xmlns="http://www.w3.org/2000/svg"
    inkscape:version="1.3.2 (091e20e, 2023-11-25)" sodipodi:docname="icon.svg">
    <sodipodi:namedview bordercolor="#000000" borderopacity="0.25" id="namedview32"
        pagecolor="#ffffff" inkscape:current-layer="Rectangle_2_copy_14_Obraz" inkscape:cx="244.00169"
        inkscape:cy="245.03999" inkscape:deskcolor="#d1d1d1" inkscape:pagecheckerboard="0"
        inkscape:pageopacity="0.0" inkscape:showpageshadow="2" inkscape:window-height="621"
        inkscape:window-maximized="0" inkscape:window-width="1312" inkscape:window-x="0"
        inkscape:window-y="38" inkscape:zoom="0.48155405" />
    <defs id="defs1">
        <style id="style1">.cls-1{fill:#fff;}</style>
    </defs>
    <title id="title1">icon2</title>
    <path
        style="fill:#ffffff"
        d="M334.32,0.24h11a4.34,4.34,0,0,0-.11.7q0,9.71,0,19.43a6.44,6.44,0,0,0,.15.93h6.94V65.16h21.89V21.21h6.93c0-.42.08-0.69,0.08-1q0-9.59,0-19.19a5.86,5.86,0,0,0-.11-0.82h11v21h7.09v44c2,0,3.82-.14,5.63,0,4.46,0.41,9-1,13.44.85a6.45,6.45,0,0,1,3,1.85,7,7,0,0,0,1.21,1.22,3.8,3.8,0,0,1,1.8,3,1.13,1.13,0,0,0,.2.79c1,0.54.69,1.45,0.7,2.24,0,5.88,0,11.76,0,17.63,0,0.46,0,.93,0,1.51h44.05v6.94H471l19.31,0v11H469.2v7H425.32v20h43.93v6.89h21.07v11H469.2v7.07H425.32v23h43.93v6.9h21.07v11H469.21v7.06H425.35v21h43.92v6.94h21.05v11H469.23v7H425.35v23h43.92v6.94h21.05v11H469.24v7H425.32v21h44v7H471l19.31,0v10.8c-0.47,0-.95.11-1.42,0.11H469.23v7h-43.9v24h44v6.93H471l19.31,0v11H469.21v7h-44c0,0.55,0,1,0,1.42,0,4.36,0,8.71,0,13.07a5,5,0,0,1-.29,1.48,10.81,10.81,0,0,1-.63,1.31,11.29,11.29,0,0,1-1.3,2.56,22.73,22.73,0,0,1-2.77,2.29,14.79,14.79,0,0,1-4.59,1.81l-15,0h-1.41v44h-7c0,0.69,0,1.21,0,1.73q0,9.65,0,19.31h-10.8c0-.47-0.11-0.95-0.11-1.42q0-9.06,0-18.11v-1.55h-7.08V425.31H351.24v44h-7c0,0.69,0,1.21,0,1.73q0,9.65,0,19.31h-10.8c0-.47-0.11-0.95-0.11-1.42q0-9.05,0-18.11v-1.55h-7.08V425.33h-21v43.92h-6.88v21.06h-11V469.21h-7v-43.9h-22v44h-6.92v21h-11V469.23h-7V425.31h-22v44h-7v21h-11V469.24h-7v-43.9h-22v44h-6.93c0,0.68,0,1.2,0,1.71q0,9.65,0,19.31h-11V469.2h-7V425.35h-22v44h-7c0,0.66,0,1.18,0,1.7q0,9.66,0,19.32H99.36c0-.48-0.11-1-0.11-1.43q0-9.06,0-18.11v-1.55h-7v-44H90.78c-5.28,0-10.56.07-15.83-.07A16.74,16.74,0,0,1,70.79,424a1.15,1.15,0,0,1-.34-0.31c-0.5-.47-1-1-1.51-1.41-1.37-1.07-2.72-2.14-2.77-4.11a0.88,0.88,0,0,0-.22-0.64c-0.84-.3-0.67-1-0.68-1.61,0-5.08,0-10.16,0-15.24,0-.43,0-0.86,0-1.43h-44v-7H19.67l-19.43,0v-11a4.34,4.34,0,0,0,.7.11H20.38a6.23,6.23,0,0,0,.93-0.16v-6.95H65.17V354.25H21.23v-7h-21v-11h21v-7h43.9v-23H21.23v-7h-21v-11h21v-7H65.15V260.17H21.22v-6.93H19.67l-19.43,0v-11H21.29v-7H65.16v-23H21.22v-6.94H19.68l-19.44,0v-11h21v-7H65.16V166.26H21.22v-6.94c-0.42,0-.69-0.08-1-0.08H1.06a5.86,5.86,0,0,0-.82.11v-11h21v-7.09H65.17v-24H21.23v-7H19.67l-19.43,0v-11a4.34,4.34,0,0,0,.7.11H20.37a6.32,6.32,0,0,0,.93-0.16V92.13H65.24c0-.57,0-1,0-1.44q0-8.1,0-16.19a3.71,3.71,0,0,1,.25-1.24c0.19-.51.5-1,0.7-1.47a3,3,0,0,1,.29-1.11c1.08-.7,1.43-2,2.56-2.75s1.86-1.78,3.31-1.77A0.78,0.78,0,0,0,72.95,66c0.44-1.08,1.39-.75,2.15-0.75,5.24,0,10.48,0,15.71,0h1.41v-44h6.94c0-.42.08-0.69,0.08-1q0-9.6,0-19.19A5.86,5.86,0,0,0,99.12.24h11v21h7.08V65.16h23V21.22h6.93c0-.42.08-0.69,0.08-1q0-9.6,0-19.19a5.86,5.86,0,0,0-.11-0.82h11v21h7.16V65.16h20.93V21.22h6.94v-21h11v21h7v43.9h22V21.23h7v-21h11v21h7V65.15h22V21.21h6.92c0-.6,0-1.07,0-1.54q0-9.71,0-19.43h11V21.29h7V65.17h21.94V21.23h7.05c0-.62,0-1.09,0-1.56Q334.3,10,334.32.24Zm-246,244.12h0q0,73,0,146a13.16,13.16,0,0,0,.66,4.83A9,9,0,0,0,91.51,399a8.71,8.71,0,0,0,5.81,2.26c0.64,0,1.28,0,1.92,0q143.88,0,287.75,0c2.73,0,5.46.48,8.25-.7a9.5,9.5,0,0,0,4.67-3.88c0.79-1.36,1.68-3,1.32-4.85a7.11,7.11,0,0,1,0-1.32q0-142.2-.05-284.39c0-4,.88-8.11-0.81-12.09a6.8,6.8,0,0,0-3.28-3.8,2.35,2.35,0,0,1-.54-0.23,5.78,5.78,0,0,0-4-1.63H120.88c-8.28,0-16.56,0-24.84.05a13.89,13.89,0,0,0-3.63,1,0.5,0.5,0,0,0-.14.18A7,7,0,0,1,91,91.1c-1,.69-1.85,1.4-1.87,2.73a0.39,0.39,0,0,1-.16.3c-0.91.22-.66,1-0.68,1.55,0,1,0,2.08,0,3.12Q88.28,171.58,88.28,244.36Z" id="path1" transform="translate(-0.24 -0.24)" />
    <path style="fill:none"
        class="cls-1"
        d="M88.28,244.36q0-72.78,0-145.56c0-1,0-2.08,0-3.12,0-.58-0.22-1.33.68-1.55a0.39,0.39,0,0,0,.16-0.3c0-1.33.87-2,1.87-2.73a7,7,0,0,0,1.25-1.54,0.5,0.5,0,0,1,.14-0.18,13.89,13.89,0,0,1,3.63-1c8.28-.09,16.56-0.05,24.84-0.05H392.55a5.78,5.78,0,0,1,4,1.63,2.35,2.35,0,0,0,.54.23,6.8,6.8,0,0,1,3.28,3.8c1.69,4,.81,8.08.81,12.09q0.1,142.2.05,284.39a7.11,7.11,0,0,0,0,1.32c0.35,1.83-.53,3.49-1.32,4.85a9.5,9.5,0,0,1-4.67,3.88c-2.8,1.19-5.53.7-8.25,0.7q-143.88.08-287.75,0c-0.64,0-1.28,0-1.92,0A8.71,8.71,0,0,1,91.51,399,9,9,0,0,1,89,395.22a13.16,13.16,0,0,1-.66-4.83q0-73,0-146h0Zm13,0.43q0,64,0,127.91c0,1.67-.56,3.44.78,5.07,0.56,0.68.6,1.88,1,2.84a13,13,0,0,0,3.56,4.41,7.84,7.84,0,0,0,4.9,2.36,0.71,0.71,0,0,1,.46.1c0.69,1,1.77.71,2.72,0.77,0.72,0,1.44,0,2.16,0h255.7c1.12,0,2.24,0,3.36,0a4.31,4.31,0,0,0,1.24-.32c0.49-.18,1-0.43,1.44-0.63l3.29-1.41a0.27,0.27,0,0,0,.07-0.09,30.74,30.74,0,0,1,2.45-2.41,11,11,0,0,0,2.94-5.29,1.1,1.1,0,0,1,.15-0.56c0.91-.6.7-1.53,0.73-2.38,0-1.16,0-2.32,0-3.48q0-109.49,0-219c0-12.52-.06-25,0-37.56,0-2-1.29-3.52-1.25-5.43a0.2,0.2,0,0,0,0-.11c-0.6-.84-1.19-1.69-1.81-2.52-0.3-.4-0.66-0.76-1-1.13a7.11,7.11,0,0,0-1.48-1.58c-1.58-.89-2.93-2.37-5-2.2a1.08,1.08,0,0,1-.4-0.21,4.5,4.5,0,0,0-1.37-.62c-1.15-.1-2.32-0.06-3.48-0.06H303.28q-93.05,0-186.11,0c-1.79,0-3.67-.59-5.43.77-0.72.55-2,.57-3,1a13,13,0,0,0-4.39,3.72c-1.17,1.34-2.4,2.87-2.24,4.92a1.1,1.1,0,0,1-.19.41,5.1,5.1,0,0,0-.63,1.48c-0.1,1.19-.06,2.4-0.06,3.6Q101.25,181,101.26,244.79Z" id="path30" transform="translate(-0.24 -0.24)" />
    <path
        style="fill:#ffffff"
        d="M101.26,244.79q0-63.78,0-127.55c0-1.2,0-2.4.06-3.6a5.1,5.1,0,0,1,.63-1.48,1.1,1.1,0,0,0,.19-0.41c-0.15-2.05,1.08-3.58,2.24-4.92a13,13,0,0,1,4.39-3.72c1-.46,2.25-0.48,3-1,1.76-1.36,3.64-.77,5.43-0.77q93.05-.07,186.11,0h69.23c1.16,0,2.32,0,3.48.06a4.5,4.5,0,0,1,1.37.62,1.08,1.08,0,0,0,.4.21c2.06-.17,3.41,1.31,5,2.2a7.11,7.11,0,0,1,1.48,1.58c0.34,0.37.69,0.73,1,1.13,0.62,0.83,1.21,1.68,1.81,2.52a0.2,0.2,0,0,1,0,.11c0,1.91,1.27,3.44,1.25,5.43-0.11,12.52-.05,25,0,37.56q0,109.49,0,219c0,1.16,0,2.32,0,3.48,0,0.84.19,1.78-.73,2.38a1.1,1.1,0,0,0-.15.56,11,11,0,0,1-2.94,5.29,30.74,30.74,0,0,0-2.45,2.41,0.27,0.27,0,0,1-.07.09l-3.29,1.41c-0.48.21-1,.45-1.44,0.63a4.31,4.31,0,0,1-1.24.32c-1.12.05-2.24,0-3.36,0H116.86c-0.72,0-1.44,0-2.16,0-1-.06-2,0.26-2.72-0.77a0.71,0.71,0,0,0-.46-0.1,7.84,7.84,0,0,1-4.9-2.36,13,13,0,0,1-3.56-4.41c-0.4-1-.44-2.16-1-2.84-1.34-1.63-.78-3.4-0.78-5.07Q101.22,308.74,101.26,244.79ZM371.19,366.23c0-2.46-2.5-4.8-5-5-2-.15-5,3-5,5s3,5,5,5S371.57,368.25,371.19,366.23Z" id="path31" transform="translate(-0.24 -0.24)" />
    <path style="fill:none"
        class="cls-1"
        d="M371.19,366.23c0.38,2-3,5-4.94,5s-5-3-5-5,3-5.15,5-5C368.69,361.43,371.19,363.77,371.19,366.23Z" id="path32" transform="translate(-0.24 -0.24)" />
</svg>
